<svg version="1.2" xmlns="http://www.w3.org/2000/svg" viewBox="0 0 1764 602" width="1764" height="602">
	<style>
		.s0 { fill: #1c2849 } 
		.s1 { fill: #5fa240 } 
		.s2 { fill: #f0f0f0 } 
	</style>
	<g id="Pasta 1">
		<path id="Path 1" fill-rule="evenodd" class="s0" d="m714.69 114.22q-17.13 0-30.76 8.36-13.64 8.36-21.51 24.49-7.86 16.13-7.86 38.63 0 22.9 7.56 39.13 7.57 16.23 21.31 24.59 13.74 8.36 31.66 8.36 13.14 0.01 23.8-4.78 10.65-4.77 17.62-11.94l-12.34-15.53q-7.17 5.37-13.55 8.26-6.37 2.89-14.53 2.89-15.53 0-24.7-12.55-9.15-12.54-9.15-38.43 0-26.48 9.25-38.83 9.27-12.34 24.6-12.34 13.34 0 25.49 9.76l13.34-15.54q-8.96-7.37-18.32-10.95-9.36-3.59-21.91-3.58zm137.06 112.7v-44.2q0-36.24-40.42-36.25-18.52 0.01-38.23 7.58l5.97 17.31q16.33-5.57 27.88-5.57 10.35 0 15.03 4.08 4.68 4.08 4.68 14.24v5.97h-13.14q-23.11 0-35.55 9.06-12.44 9.06-12.44 26.19 0 14.53 9.16 23.49 9.15 8.97 24.89 8.96 9.95 0 18.02-3.87 8.07-3.89 13.44-11.85 2.99 7.37 8.66 10.94 5.68 3.59 14.64 4.38l5.38-16.92q-4.19-1.59-6.08-4.48-1.89-2.88-1.89-9.06zm-45.4 12.35q-7.37-0.01-11.15-4.18-3.78-4.18-3.78-11.76-0.01-18.31 24.69-18.31h10.55v21.31q-7.37 12.94-20.31 12.94zm182.42-92.8q-9.96 0.01-17.62 4.58-7.67 4.59-14.04 13.14-2.99-8.35-9.66-13.03-6.67-4.69-15.83-4.69-18.51 0-30.47 16.73l-1.99-13.74h-22.1v105.34h25.49v-73.28q4.78-8.17 9.26-12.05 4.47-3.88 10.85-3.88 11.55 0 11.55 16.93v72.28h25.49v-73.28q4.78-8.17 9.26-12.05 4.47-3.88 10.65-3.88 11.55 0 11.55 16.93v72.28h25.49v-76.26q0-14.74-7.57-23.4-7.57-8.67-20.31-8.67zm77.4 2.99h-25.49v105.34h25.49zm-12.94-53.36q-6.98 0-11.46 4.48-4.47 4.48-4.48 11.05 0.01 6.57 4.48 10.95 4.48 4.38 11.46 4.38 7.16 0 11.64-4.38 4.49-4.38 4.48-10.95 0.01-6.57-4.48-11.05-4.48-4.48-11.64-4.48zm94.06 50.38q-19.12 0-32.06 16.73l-1.99-13.75h-22.1v105.34h25.48v-73.28q4.98-7.76 10.26-11.84 5.28-4.08 11.85-4.09 6.37 0 9.66 3.78 3.28 3.79 3.28 13.15v72.28h25.49v-76.26q0-15.13-7.86-23.6-7.87-8.46-22.01-8.46zm110.2 0q-17.92 0-30.67 15.53v-57.14l-25.48 2.58v147.35h25.48v-73.47q4.98-7.57 10.36-11.65 5.38-4.08 11.75-4.09 6.37 0 9.65 3.78 3.29 3.79 3.29 13.15v72.28h25.49v-76.26q0-14.94-7.97-23.5-7.96-8.56-21.9-8.56zm97.93 0q-15.33 0-26.58 6.97-11.26 6.96-17.23 19.51-5.97 12.55-5.97 29.08 0 26.08 13.14 40.92 13.15 14.83 36.44 14.83 15.33 0 26.48-6.97 11.15-6.96 17.13-19.62 5.97-12.63 5.97-29.16 0-25.89-13.04-40.72-13.04-14.84-36.34-14.84zm0 19.31q11.15 0 16.82 8.87 5.68 8.86 5.68 27.38 0 18.51-5.68 27.47-5.67 8.96-17.02 8.96-11.35 0.01-17.03-8.85-5.67-8.87-5.67-27.58 0-36.25 22.9-36.25zm102.47-19.31q-11.95 0-21.21 3.98-9.26 3.99-14.34 10.95-5.07 6.97-5.07 15.74-0.01 11.74 7.56 19.61 7.57 7.86 23.7 12.24 10.35 2.99 15.23 5.08 4.88 2.09 6.77 4.78 1.89 2.69 1.89 7.27 0 5.98-5.08 9.36-5.07 3.39-13.63 3.38-14.94 0-28.68-10.35l-12.74 14.33q7.76 6.98 18.42 10.96 10.65 3.98 23.59 3.98 18.92-0.01 31.67-8.86 12.74-8.86 12.74-24.59 0-13.54-8.26-21.11-8.27-7.56-25.4-12.15-9.15-2.58-13.83-4.68-4.68-2.08-6.47-4.48-1.8-2.39-1.8-5.97 0-4.78 4.19-7.67 4.17-2.88 11.74-2.89 12.94 0.01 26.49 8.56l9.95-14.92q-16.13-12.55-37.43-12.55zm168.46-42.02v53.37q-11.35-11.36-26.48-11.35-12.75 0-22.4 7.17-9.66 7.17-14.84 19.81-5.18 12.65-5.18 28.78 0 25.68 10.36 40.61 10.35 14.94 29.67 14.94 9.76-0.01 17.42-4.38 7.67-4.38 12.65-11.95l1.79 13.34h22.5v-147.55zm-21.7 134.01q-9.96 0-15.14-8.46-5.18-8.47-5.17-27.98 0-18.32 5.87-27.38 5.88-9.06 16.03-9.06 6.17 0 10.85 2.79 4.68 2.78 9.26 8.36v48.19q-4.58 6.97-9.75 10.26-5.18 3.28-11.95 3.28zm150.72-11.55v-44.2q0-36.25-40.43-36.25-18.51 0-38.23 7.57l5.98 17.32q16.32-5.57 27.87-5.57 10.36 0 15.04 4.08 4.67 4.08 4.68 14.23v5.98h-13.14q-23.11 0-35.55 9.06-12.45 9.06-12.45 26.19 0 14.53 9.16 23.49 9.16 8.96 24.89 8.96 9.96 0 18.03-3.88 8.06-3.88 13.44-11.84 2.98 7.36 8.66 10.94 5.67 3.59 14.64 4.38l5.37-16.92q-4.18-1.59-6.07-4.48-1.9-2.88-1.89-9.06zm-45.4 12.34q-7.37 0-11.16-4.18-3.78-4.17-3.78-11.75 0-18.31 24.7-18.32h10.55v21.31q-7.37 12.94-20.31 12.94zm-959.03 50.3q-28.35 0-50.13 12.83-21.79 12.83-34.01 37.29-12.24 24.47-12.24 58.49 0 34.91 11.94 59.53 11.93 24.61 33.86 37.29 21.93 12.68 51.47 12.69 19.99-0.01 37.15-7.76 17.15-7.75 29.39-20l-24.47-31.03q-10.74 8.36-19.84 12.68-9.1 4.34-19.84 4.33-19.99 0-31.18-16.71-11.19-16.71-11.19-51.02 0-34.32 11.04-51.32 11.04-17.01 30.73-17.01 9.85 0 18.5 3.58 8.66 3.58 17.9 10.44l25.96-30.73q-13.72-11.64-29.53-17.6-15.82-5.97-35.51-5.97z"/>
		<path id="Path 2" fill-rule="evenodd" class="s0" d="m969.06 438.16h-97.28q2.09 18.2 10.3 24.91 8.2 6.71 23.42 6.71 8.95 0 17.75-3.43 8.8-3.43 19.25-10.59l21.48 29.24q-12.53 10.45-28.64 16.56-16.11 6.12-34.91 6.12-40.58 0-61.62-22.83-21.04-22.83-21.03-61.31 0-24.17 8.8-43.57 8.79-19.4 26.11-30.73 17.3-11.34 41.77-11.34 34.91 0 55.2 21.63 20.29 21.64 20.29 60.72 0 1.79-0.89 17.91zm-51.32-32.82q-0.3-15.81-5.38-24.48-5.07-8.64-17.01-8.64-11.04 0-16.7 7.75-5.68 7.76-7.16 27.16h46.25zm78.67 89.8q-12.23-12.52-12.23-36.09v-178.44l53.11-5.37v182.02q0 8.65 7.76 8.65 3.28 0 6.86-1.2l9.85 37.6q-12.24 5.37-30.74 5.37-22.38 0-34.61-12.54zm210.09 7.17h-46.25l-2.08-18.8q-16.72 24.17-47.45 24.17-22.08 0-33.27-13.28-11.19-13.27-11.19-36.85v-114.28h53.11v107.42q0 10.14 3.14 14.17 3.13 4.03 9.4 4.03 5.66 0 11.18-4.03 5.53-4.02 10.3-11.78v-109.81h53.11zm34.91-7.17q-12.24-12.52-12.24-36.09v-178.44l53.12-5.37v182.02q0 8.65 7.75 8.65 3.29 0 6.86-1.2l9.85 37.6q-12.23 5.37-30.73 5.37-22.38 0-34.61-12.54z"/>
		<path id="Path 3" fill-rule="evenodd" class="s0" d="m1383.52 337.9q-24.47 0-42.51 10.44-18.06 10.45-27.61 29.54-9.55 19.1-9.54 44.76-0.01 40.28 21.18 62.66 21.18 22.38 58.48 22.38 24.47 0 42.52-10.45 18.05-10.44 27.6-29.54 9.55-19.08 9.55-44.75 0-40.29-21.18-62.67-21.19-22.37-58.49-22.37zm0 38.49q12.83 0 18.95 11.04 6.11 11.05 6.12 35.51-0.01 23.87-6.12 35.06-6.12 11.19-18.95 11.19-12.83 0-18.94-10.89-6.12-10.89-6.12-35.66 0-23.87 6.12-35.06 6.11-11.19 18.94-11.19zm155.14-38.49q-20.89 0-35.96 6.56-15.07 6.57-23.12 18.05-8.06 11.49-8.06 25.52 0 36.69 46.25 50.42 15.22 4.48 21.48 7.01 6.27 2.54 8.51 5.23 2.24 2.69 2.24 7.46-0.01 6.26-5.22 9.39-5.23 3.14-14.78 3.14-10.74 0-21.33-4.18-10.6-4.18-19.84-11.34l-25.37 28.35q12.24 11.35 29.99 17.75 17.75 6.42 38.05 6.42 20.88 0 37.44-6.57 16.56-6.56 25.96-18.65 9.4-12.08 9.4-28.19 0-20.59-11.64-32.08-11.64-11.49-36.1-18.65-14.62-4.47-21.33-7.31-6.72-2.83-8.81-5.22-2.09-2.38-2.09-6.27 0.01-4.47 4.03-7.01 4.03-2.54 12.39-2.54 19.39 0.01 38.49 11.94l19.09-29.24q-11.04-9.25-26.7-14.62-15.67-5.37-32.97-5.37zm224.67 82.35q0-39.08-20.28-60.72-20.3-21.63-55.21-21.63-24.47 0-41.77 11.34-17.31 11.33-26.11 30.73-8.8 19.4-8.8 43.57 0 38.48 21.04 61.31 21.03 22.83 61.61 22.83 18.8 0 34.91-6.12 16.12-6.11 28.65-16.56l-21.48-29.24q-10.46 7.16-19.25 10.59-8.8 3.43-17.76 3.43-15.21 0-23.42-6.71-8.21-6.71-10.29-24.91h97.27q0.89-16.12 0.89-17.91zm-52.21-13.12h-46.25q1.49-19.4 7.16-27.16 5.67-7.75 16.71-7.75 11.93 0 17.01 8.64 5.07 8.67 5.37 24.48zm-1543.58-106.13c0-75.26 27.67-144.04 73.44-196.74q1.11-1.32 2.35-2.64c2.27-3.08 3.58-6.87 3.58-10.99 0-8.39-5.53-15.51-13.15-17.89-30.02-10.13-62.19-15.58-95.6-15.58q-3.69 0-7.37 0.09c-3.56 0.09-7.02 1.23-9.86 3.37-73.04 54.79-120.26 142.07-120.26 240.38 0 93.55 42.76 177.09 109.82 232.17 2 1.64 4.34 2.81 6.84 3.42 22.78 5.53 46.6 8.46 71.09 8.46 26.1 0 51.44-3.33 75.6-9.6 5.15-1.34 6.67-7.89 2.72-11.45-60.92-54.95-99.2-134.5-99.2-223z"/>
		<path id="Path 4" class="s1" d="m303.13 49.86c-25.4-16.71-53.47-29.65-83.43-38.07 23.31-6.55 47.77-10.34 73.01-11.01 29.03 0.77 57.02 5.69 83.43 14.17 3.21 1.01 6.37 2.11 9.52 3.23 36.95 13.24 70.55 33.5 99.18 59.19 47.59 42.64 81.49 100.25 94.26 165.46-21.52-10.83-45.82-16.93-71.56-16.93-26.79 0-52.03 6.61-74.19 18.26-7.88-41.17-24.16-79.34-47.02-112.68-22.14-32.32-50.45-60.1-83.2-81.62z"/>
		<path id="Path 5" class="s0" d="m507.54 394.86c23.76 0 46.33-5.18 66.59-14.54-17.54 64.35-55.98 120.06-107.55 159.41-26.92 20.64-57.45 36.76-90.44 47.32-19.33 6.2-39.48 10.51-60.28 12.65q-11.46 1.2-23.15 1.52c-25.24-0.67-49.7-4.46-73.01-11.01 29.96-8.42 58.03-21.36 83.43-38.07 29.38-19.3 55.18-43.63 76.11-71.78 2.41-3.19 4.71-6.39 6.95-9.65 19.81-28.82 34.68-61.28 43.45-96.14 23.04 12.94 49.61 20.29 77.9 20.29z"/>
		<path id="Path 6" fill-rule="evenodd" class="s2" d="m192.82 520.22h-21.81c-22.83-20.16-42.59-43.73-58.44-69.91l26.2-8.5c14.35 29.06 32.64 55.47 54.05 78.41zm-64.4-101.37l-28.79 7.7c-9.2-18.82-16.49-38.74-21.6-59.54l32.91-4.62c4.28 19.57 10.16 38.44 17.48 56.46zm-22.03-81.51l-33.68 2.94c-2.25-14.78-3.4-29.92-3.4-45.34 0-15.4 1.15-30.53 3.4-45.32l31.54 2.76c-1.04 10.93-1.55 22.05-1.55 33.28 0 17.59 1.26 34.84 3.69 51.68zm15.7-168c-6.42 18.48-11.34 37.75-14.6 57.67l-29.46-4.15c5.11-20.8 12.4-40.71 21.6-59.53zm40.77-80.9c-12.22 17.75-22.83 36.89-31.6 57.18l-18.66-6.07c11.15-18.41 24.25-35.55 39-51.11z"/>
	</g>
</svg>